<?xml version="1.0" encoding="UTF-8"?>
<svg width="22px" height="22px" viewBox="0 0 22 22" version="1.1" xmlns="http://www.w3.org/2000/svg" xmlns:xlink="http://www.w3.org/1999/xlink">
    <!-- Generator: Sketch 49.2 (51160) - http://www.bohemiancoding.com/sketch -->
    <title>icon2</title>
    <desc>Created with Sketch.</desc>
    <defs></defs>
    <g id="Symbols" stroke="none" stroke-width="1" fill="none" fill-rule="evenodd">
        <g id="list0" transform="translate(-253.000000, -151.000000)" fill="#71BE6A">
            <g id="Group-4" transform="translate(253.000000, 151.000000)">
                <g id="icon2">
                    <g id="退款">
                        <path d="M10.5840306,2.59754625 C5.76721241,2.59754625 1.86383473,6.35974492 1.86383473,11 C1.86383473,15.6407803 5.76721241,19.4024538 10.5840306,19.4024538 C15.3997588,19.4024538 19.3042265,15.6407802 19.3042265,11 C19.3042265,6.35974492 15.3997588,2.59754625 10.5840306,2.59754625 Z M14.6165762,12.0875926 C14.6165762,12.4184392 14.33862,12.6857423 13.9958073,12.6857423 L11.2047996,12.6857423 L11.2047996,15.6544342 C11.2047996,15.9842305 10.9257533,16.2515336 10.5840306,16.2515336 C10.2428529,16.2515336 9.96326166,15.9842305 9.96326166,15.6539091 L9.96326166,12.6852171 L7.17225396,12.6852171 C6.82944125,12.6852171 6.55148501,12.4179141 6.55148501,12.0870675 C6.55148501,11.7562208 6.82944125,11.4889178 7.17225396,11.4889178 L9.96326166,11.4889178 L9.96326166,10.0820319 L7.17225396,10.0820319 C6.82944125,10.0820319 6.55148501,9.81472885 6.55148501,9.48388223 C6.55148501,9.15408593 6.82944125,8.88625772 7.17225396,8.88625772 L9.96326166,8.88625772 L9.96326166,8.72713625 L7.97233193,6.77356575 C7.73525163,6.51466515 7.74070174,6.15125902 7.9788721,5.92701854 C8.21758746,5.70120261 8.59146587,5.70382836 8.83399631,5.91914124 C8.85470678,5.93279521 8.85579679,5.93332038 8.85634182,5.93384553 C8.85670517,5.93419562 9.42878636,6.49558457 10.5725854,7.61801235 L12.2970041,5.92544308 C12.5368095,5.68964921 12.9303084,5.68754861 13.1744739,5.91809093 C13.4191844,6.14968356 13.4213644,6.52779398 13.182104,6.76358784 L11.2047996,8.70245406 L11.2047996,8.88520743 L13.9958073,8.88520743 C14.33862,8.88520743 14.6165763,9.15303564 14.6165763,9.48283194 C14.6165763,9.81367856 14.33862,10.0809816 13.9958073,10.0809816 L11.2047996,10.0809816 L11.2047996,11.4878675 L13.9958073,11.4878675 C14.33862,11.4894429 14.6165762,11.756746 14.6165762,12.0875926 Z M10.5840306,0 C6.81105273,0 3.56765352,1.84362881 1.48947144,4.56154548 L0.819158936,4.17058716 C0.590363868,4.06012881 0.311623956,4.13346216 0.184145616,4.34658716 C0.143238385,4.41487883 0.128968423,4.48821216 0.127065769,4.56154548 L0.337908936,7.00652466 C0.363119186,7.15685801 0.355322047,7.26825002 0.495167672,7.34570835 C0.634537639,7.42316667 0.683118641,7.4066667 0.819158936,7.34570835 L3.1058263,6.32842048 C3.19001907,6.28029548 3.26517419,6.22667048 3.3146434,6.14371216 C3.43831641,5.93746216 3.37077191,5.68125383 3.17384644,5.54558716 L2.45197144,5.11589966 C4.27662388,2.80864966 7.33999266,1.14558716 10.5840306,1.14558716 C16.1007978,1.14558716 20.8254089,5.68470833 20.8254089,11 C20.8254089,16.3166667 16.1007978,20.8938232 10.5840306,20.8938232 C6.78869645,20.8938232 3.28156705,18.7014985 1.59105225,15.6984985 L0.499448661,16.1447917 C2.41542886,19.625375 6.20886035,22 10.5840306,22 C16.8884997,22 22,17.0756667 22,11 C22,4.92525 16.8884997,0 10.5840306,0 Z" id="Shape" fill-rule="nonzero"></path>
                    </g>
                </g>
            </g>
        </g>
    </g>
</svg>